<svg width="87" height="87" viewBox="0 0 87 87" fill="none" xmlns="http://www.w3.org/2000/svg">
<g id="k_alert">
<path id="Vector" d="M0 0H86.28V86.28H0V0Z" fill="white" fill-opacity="0.01"/>
<path id="Vector_2" d="M35.9499 64.7099C51.8337 64.7099 64.7099 51.8337 64.7099 35.9499C64.7099 20.0662 51.8337 7.18994 35.9499 7.18994C20.0662 7.18994 7.18994 20.0662 7.18994 35.9499C7.18994 51.8337 20.0662 64.7099 35.9499 64.7099Z" fill="#90BCF7" stroke="black" stroke-width="7.19" stroke-linecap="round" stroke-linejoin="round"/>
<path id="Vector_3" d="M79.0901 32.355V35.95H75.4951V32.355H79.0901Z" fill="#90BCF7"/>
<g id="Group">
<path id="Vector_4" d="M75.4953 35.95H79.0903V32.355H75.4953V35.95ZM75.4953 35.95C75.4953 52.3739 65.483 66.4593 51.229 72.4353" stroke="black" stroke-width="7.19" stroke-linecap="round" stroke-linejoin="round"/>
<path id="Vector_5" d="M25.1651 62.9126L17.9751 79.0901H53.9251L46.7351 62.9126" stroke="black" stroke-width="7.19" stroke-linecap="round" stroke-linejoin="round"/>
<path id="Vector_6" d="M35.9503 43.1403C39.9212 43.1403 43.1403 39.9212 43.1403 35.9503C43.1403 31.9793 39.9212 28.7603 35.9503 28.7603C31.9793 28.7603 28.7603 31.9793 28.7603 35.9503C28.7603 39.9212 31.9793 43.1403 35.9503 43.1403Z" fill="#43CCF8" stroke="white" stroke-width="7.19" stroke-linecap="round" stroke-linejoin="round"/>
<path id="Vector_7" d="M17.9751 35.9501C17.9751 26.0229 26.0229 17.9751 35.9501 17.9751" stroke="white" stroke-width="7.19" stroke-linecap="round" stroke-linejoin="round"/>
</g>
</g>
</svg>
