<svg width="22" height="18" viewBox="0 0 22 18" fill="none" xmlns="http://www.w3.org/2000/svg">
<path id="&#236;&#157;&#180;&#235;&#169;&#148;&#236;&#157;&#188; &#236;&#149;&#132;&#236;&#157;&#180;&#236;&#189;&#152;" d="M2.43008 17.8637C1.75707 17.8637 1.1838 17.6269 0.710282 17.1534C0.236761 16.6799 0 16.1066 0 15.4336V2.45593C0 1.7758 0.236761 1.19645 0.710282 0.717883C1.1838 0.239294 1.75707 0 2.43008 0H19.5441C20.2242 0 20.8035 0.239294 21.2821 0.717883C21.7607 1.19645 22 1.7758 22 2.45593V15.4336C22 16.1066 21.7607 16.6799 21.2821 17.1534C20.8035 17.6269 20.2242 17.8637 19.5441 17.8637H2.43008ZM10.9871 9.97885C11.1077 9.97885 11.2197 9.96161 11.3231 9.92715C11.4266 9.89268 11.5398 9.84054 11.6628 9.77074L19.1821 4.73091C19.2683 4.68782 19.3502 4.6038 19.4277 4.47885C19.5053 4.3539 19.5441 4.21158 19.5441 4.0519C19.5441 3.75257 19.4019 3.50654 19.1175 3.3138C18.8331 3.12105 18.5445 3.12808 18.2515 3.3349L10.9871 8.09166L3.74853 3.3349C3.45554 3.14532 3.16255 3.12808 2.86957 3.2832C2.57658 3.43831 2.43008 3.68684 2.43008 4.02879C2.43008 4.18156 2.47317 4.31953 2.55934 4.44271C2.64551 4.5659 2.73332 4.66253 2.82275 4.73259L10.3119 9.77077C10.4345 9.84055 10.5476 9.89268 10.651 9.92715C10.7544 9.96161 10.8664 9.97885 10.9871 9.97885Z" fill="#D6B4A2"/>
</svg>
