<svg width="40" height="41" viewBox="0 0 40 41" fill="none" xmlns="http://www.w3.org/2000/svg">
<g id="&#234;&#181;&#172;&#234;&#184;&#128; &#236;&#149;&#132;&#236;&#157;&#180;&#236;&#189;&#152;">
<path d="M39.6098 20.4607C39.6098 19.1012 39.4996 17.7343 39.2644 16.3968H20.3998V24.0984H31.2027C30.7544 26.5823 29.314 28.7797 27.2049 30.176V35.1732H33.6499C37.4346 31.6898 39.6098 26.5456 39.6098 20.4607Z" fill="#4285F4"/>
<path d="M20.4 40.0014C25.7941 40.0014 30.343 38.2303 33.6574 35.1731L27.2124 30.1759C25.4193 31.3958 23.1044 32.0866 20.4073 32.0866C15.1896 32.0866 10.7656 28.5665 9.17824 23.8338H2.5275V28.9854C5.92268 35.739 12.838 40.0014 20.4 40.0014Z" fill="#34A853"/>
<path d="M9.17071 23.8338C8.33294 21.3499 8.33294 18.6602 9.17071 16.1763V11.0247H2.52731C-0.309357 16.676 -0.309174 23.3341 2.5275 28.9854L9.17071 23.8338Z" fill="#FBBC04"/>
<path d="M20.4 7.9161C23.2514 7.87201 26.0072 8.94494 28.0722 10.9144L33.7823 5.20436C30.1667 1.80917 25.3678 -0.0574433 20.4 0.00134778C12.838 0.00134778 5.9225 4.26374 2.52731 11.0247L9.17071 16.1763C10.7507 11.4363 15.1823 7.9161 20.4 7.9161Z" fill="#EA4335"/>
</g>
</svg>
