<svg width="45" height="45" viewBox="0 0 45 45" fill="none" xmlns="http://www.w3.org/2000/svg">
<g id="&#236;&#185;&#180;&#236;&#185;&#180;&#236;&#152;&#164; &#236;&#149;&#132;&#236;&#157;&#180;&#236;&#189;&#152;">
<path d="M0 22.5C0 10.0736 10.0736 0 22.5 0C34.9264 0 45 10.0736 45 22.5C45 34.9264 34.9264 45 22.5 45C10.0736 45 0 34.9264 0 22.5Z" fill="#FFE812"/>
<path d="M22.5 10.3125C14.2157 10.3125 7.5 15.6077 7.5 22.1394C7.5 26.3623 10.3076 30.0678 14.531 32.1602C14.3012 32.9526 13.0545 37.2578 13.0048 37.5961C13.0048 37.5961 12.975 37.8502 13.1395 37.9471C13.3042 38.044 13.4977 37.9688 13.4977 37.9688C13.9696 37.9028 18.9702 34.3902 19.8358 33.7803C20.7005 33.9027 21.5908 33.9664 22.5 33.9664C30.7843 33.9664 37.5 28.6714 37.5 22.1394C37.5 15.6077 30.7843 10.3125 22.5 10.3125Z" fill="#381F1F"/>
<path fill-rule="evenodd" clip-rule="evenodd" d="M14.207 26.2681C13.7297 26.2681 13.3416 25.8974 13.3416 25.4416V20.3006H11.9913C11.523 20.3006 11.1421 19.9203 11.1421 19.4531C11.1421 18.986 11.5231 18.6058 11.9913 18.6058H16.4227C16.8909 18.6058 17.2718 18.986 17.2718 19.4531C17.2718 19.9203 16.8908 20.3006 16.4227 20.3006H15.0724V25.4416C15.0724 25.8974 14.6842 26.2681 14.207 26.2681ZM21.7952 26.2569C21.4343 26.2569 21.1583 26.1104 21.0751 25.8747L20.6466 24.7529L18.0077 24.7527L17.579 25.8752C17.496 26.1105 17.2201 26.2569 16.8592 26.2569C16.6694 26.2571 16.4817 26.2163 16.3091 26.1375C16.0705 26.0274 15.8412 25.7248 16.104 24.9086L18.174 19.4601C18.3199 19.0457 18.7627 18.6188 19.3265 18.606C19.8917 18.6187 20.3346 19.0457 20.4807 19.461L22.5499 24.907C22.8132 25.7251 22.5839 26.0279 22.3453 26.1376C22.1726 26.2163 21.985 26.257 21.7952 26.2569ZM19.327 20.7644L20.1914 23.2199H18.4626L19.327 20.7644ZM23.9426 26.1419C23.4852 26.1419 23.1133 25.786 23.1133 25.3486V19.4712C23.1133 18.994 23.5096 18.6058 23.9967 18.6058C24.4837 18.6058 24.8801 18.994 24.8801 19.4712V24.5553H26.719C27.1764 24.5553 27.5484 24.9113 27.5484 25.3486C27.5484 25.786 27.1764 26.1419 26.719 26.1419H23.9426ZM27.885 25.3915C27.885 25.8687 28.2731 26.2569 28.7504 26.2569C28.9799 26.2565 29.1999 26.1652 29.3622 26.0029C29.5245 25.8406 29.6158 25.6206 29.6161 25.391V23.5029L29.9164 23.2026L31.9459 25.8916C32.0262 25.999 32.1306 26.086 32.2507 26.1458C32.3707 26.2055 32.503 26.2362 32.6371 26.2357C32.8252 26.2361 33.0081 26.1747 33.1577 26.0609C33.2486 25.9928 33.3251 25.9073 33.3828 25.8093C33.4404 25.7113 33.478 25.6029 33.4934 25.4903C33.5096 25.3777 33.5033 25.2631 33.4747 25.1531C33.4462 25.043 33.3961 24.9397 33.3273 24.8491L31.1971 22.0271L33.1692 20.0553C33.3048 19.9196 33.3728 19.7325 33.3602 19.5284C33.3477 19.3261 33.2574 19.1313 33.1058 18.9798C32.9432 18.8174 32.7263 18.7242 32.5103 18.7242C32.325 18.7242 32.1544 18.7926 32.0303 18.9168L29.6158 21.3312V19.4712C29.6158 18.994 29.2277 18.6058 28.7504 18.6058C28.2731 18.6058 27.885 18.994 27.885 19.4712V25.3915Z" fill="#FFE812"/>
</g>
</svg>
