<svg width="30" height="30" viewBox="0 0 30 30" fill="none" xmlns="http://www.w3.org/2000/svg">
<g id="Group 112">
<path id="Vector" d="M15.0005 14.3751C13.6255 14.3751 12.5005 13.9376 11.6255 13.0626C10.7505 12.1876 10.313 11.0626 10.313 9.68762C10.313 8.31262 10.7505 7.18762 11.6255 6.31262C12.5005 5.43762 13.6255 5.00012 15.0005 5.00012C16.3755 5.00012 17.5005 5.43762 18.3755 6.31262C19.2505 7.18762 19.688 8.31262 19.688 9.68762C19.688 11.0626 19.2505 12.1876 18.3755 13.0626C17.5005 13.9376 16.3755 14.3751 15.0005 14.3751ZM6.87549 24.4064C6.35466 24.4064 5.91195 24.2241 5.54736 23.8595C5.18278 23.4949 5.00049 23.0522 5.00049 22.5314V21.4689C5.00049 20.6772 5.1984 20.0001 5.59424 19.4376C5.99007 18.8751 6.50049 18.448 7.12549 18.1564C8.52132 17.5314 9.85986 17.0626 11.1411 16.7501C12.4224 16.4376 13.7088 16.2814 15.0005 16.2814C16.2922 16.2814 17.5734 16.4428 18.8442 16.7657C20.1151 17.0887 21.4484 17.5522 22.8442 18.1564C23.4901 18.448 24.0109 18.8751 24.4067 19.4376C24.8026 20.0001 25.0005 20.6772 25.0005 21.4689V22.5314C25.0005 23.0522 24.8182 23.4949 24.4536 23.8595C24.089 24.2241 23.6463 24.4064 23.1255 24.4064H6.87549Z" fill="#262626"/>
</g>
</svg>
