<svg width="25" height="26" viewBox="0 0 25 26" fill="none" xmlns="http://www.w3.org/2000/svg">
<path d="M19.8901 8.53412C19.8901 6.53594 19.0941 4.61961 17.6769 3.2067C16.2599 1.79377 14.338 1 12.3341 1C10.3301 1 8.40816 1.79377 6.99113 3.2067C5.5741 4.61961 4.77802 6.53594 4.77802 8.53412C4.77802 17.324 1 19.8353 1 19.8353H23.6681C23.6681 19.8353 19.8901 17.324 19.8901 8.53412Z" stroke="black" stroke-width="1.5" stroke-linecap="round" stroke-linejoin="round"/>
<path d="M14.5127 23.3669C14.2913 23.7238 13.9736 24.0199 13.5911 24.2257C13.2088 24.4316 12.7753 24.54 12.3341 24.54C11.8928 24.54 11.4593 24.4316 11.077 24.2257C10.6946 24.0199 10.3768 23.7238 10.1554 23.3669" stroke="black" stroke-width="1.5" stroke-linecap="round" stroke-linejoin="round"/>
</svg>
