<svg width="27" height="27" viewBox="0 0 27 27" fill="none" xmlns="http://www.w3.org/2000/svg">
<path d="M9.125 9.75C8.77982 9.75 8.5 9.47018 8.5 9.125C8.5 8.77982 8.77982 8.5 9.125 8.5C9.47018 8.5 9.75 8.77982 9.75 9.125C9.75 9.47018 9.47018 9.75 9.125 9.75Z" fill="black" stroke="black" stroke-width="1.5" stroke-linecap="round" stroke-linejoin="round"/>
<path d="M17.875 9.75C17.5299 9.75 17.25 9.47018 17.25 9.125C17.25 8.77982 17.5299 8.5 17.875 8.5C18.2201 8.5 18.5 8.77982 18.5 9.125C18.5 9.47018 18.2201 9.75 17.875 9.75Z" fill="black" stroke="black" stroke-width="1.5" stroke-linecap="round" stroke-linejoin="round"/>
<path d="M13.5 26C20.4035 26 26 20.4035 26 13.5C26 6.59644 20.4035 1 13.5 1C6.59644 1 1 6.59644 1 13.5C1 20.4035 6.59644 26 13.5 26Z" stroke="black" stroke-width="1.5" stroke-linecap="round" stroke-linejoin="round"/>
<path d="M7.875 17.875C7.875 17.875 9.75 15.375 13.5 15.375C17.25 15.375 19.125 17.875 19.125 17.875" stroke="black" stroke-width="1.5" stroke-linecap="round" stroke-linejoin="round"/>
</svg>
