<svg width="64" height="67" viewBox="0 0 64 67" fill="none" xmlns="http://www.w3.org/2000/svg">
<g id="k_people_icon">
<path id="Vector" d="M0 0H55V55H0V0Z" fill="white" fill-opacity="0.01"/>
<g id="Group">
<path id="Vector_2" d="M25.9589 29.0415C31.4679 29.0415 35.9339 24.0794 35.9339 17.9583C35.9339 11.8371 31.4679 6.875 25.9589 6.875C20.4498 6.875 15.9839 11.8371 15.9839 17.9583C15.9839 24.0794 20.4498 29.0415 25.9589 29.0415Z" fill="#90BCF7" stroke="black" stroke-width="4.79" stroke-linecap="round" stroke-linejoin="round"/>
<path id="Vector_3" d="M45.3496 8.45801C48.2463 10.3974 50.1838 13.9263 50.1838 17.9579C50.1838 21.9895 48.2463 25.5185 45.3496 27.4579" stroke="black" stroke-width="4.79" stroke-linecap="round" stroke-linejoin="round"/>
<path id="Vector_4" d="M4.58301 61.9745V63.8745H47.333V61.9745C47.333 54.8806 47.333 51.3337 46.0905 48.6241C44.9975 46.2407 43.2535 44.3029 41.1084 43.0885C38.6698 41.708 35.4776 41.708 29.093 41.708H22.823C16.4384 41.708 13.2461 41.708 10.8075 43.0885C8.66247 44.3029 6.91848 46.2407 5.82554 48.6241C4.58301 51.3337 4.58301 54.8806 4.58301 61.9745Z" fill="#90BCF7" stroke="black" stroke-width="4.79" stroke-linecap="round" stroke-linejoin="round"/>
<path id="Vector_5" d="M61.5834 63.8749V61.9749C61.5834 54.881 61.5834 51.334 60.341 48.6245C59.248 46.2411 57.5039 44.3033 55.3589 43.0889" stroke="black" stroke-width="4.79" stroke-linecap="round" stroke-linejoin="round"/>
</g>
</g>
</svg>
