<svg width="42" height="42" viewBox="0 0 42 42" fill="none" xmlns="http://www.w3.org/2000/svg">
<path d="M21 41C32.0456 41 41 32.0456 41 21C41 9.9543 32.0456 1 21 1C9.9543 1 1 9.9543 1 21C1 32.0456 9.9543 41 21 41Z" stroke="black" stroke-width="1.99767" stroke-linecap="round" stroke-linejoin="round"/>
<path d="M26.9999 14C25.6299 12.63 23.2173 11.6771 20.9999 11.6174M20.9999 11.6174C18.3617 11.5464 15.9999 12.74 15.9999 16C15.9999 22 26.9999 19 26.9999 25C26.9999 28.422 24.0723 29.8924 20.9999 29.782M20.9999 11.6174V8M14.9999 27C16.2888 28.7186 18.6855 29.6988 20.9999 29.782M20.9999 29.782V34" stroke="black" stroke-width="1.99767" stroke-linecap="round" stroke-linejoin="round"/>
</svg>
