<svg width="25" height="25" viewBox="0 0 25 25" fill="none" xmlns="http://www.w3.org/2000/svg">
<path d="M7.33249 24.4377L7.33252 24.4377L24.4379 7.33226C24.438 7.33225 24.438 7.33225 24.438 7.33224C24.6378 7.13237 24.75 6.86134 24.75 6.57874C24.75 6.29614 24.6378 6.02511 24.438 5.82524L24.4379 5.82522M7.33249 24.4377L24.6148 5.64847L24.4379 5.82522M7.33249 24.4377C7.13267 24.6376 6.86165 24.7499 6.57902 24.75C6.579 24.75 6.57899 24.75 6.57897 24.75H1.3158C1.03313 24.75 0.762043 24.6377 0.562167 24.4378C0.36229 24.238 0.25 23.9669 0.25 23.6842V18.421C0.25 18.421 0.25 18.421 0.25 18.421C0.250074 18.1384 0.362402 17.8673 0.562281 17.6675L0.562307 17.6675L13.7204 4.50944L17.6677 0.562053L17.491 0.385299L17.6678 0.562026C17.8676 0.362236 18.1387 0.25 18.4213 0.25C18.7039 0.25 18.9749 0.362236 19.1748 0.562026L7.33249 24.4377ZM24.4379 5.82522L19.1748 0.562053L24.4379 5.82522ZM14.6506 6.94671L14.4738 6.76993L14.2971 6.94671L2.45483 18.7889L2.38161 18.8622V18.9657V22.3684V22.6184H2.63161H6.03428H6.13783L6.21105 22.5452L18.0533 10.7029L18.2301 10.5262L18.0533 10.3494L14.6506 6.94671ZM19.5603 8.84238L19.7371 9.01916L19.9138 8.84238L22.0007 6.75552L22.1775 6.57874L22.0007 6.40196L18.598 2.99929L18.4213 2.82252L18.2445 2.99929L16.1576 5.08616L15.9808 5.26294L16.1576 5.43971L19.5603 8.84238Z" fill="#0D0D0D" stroke="black" stroke-width="0.5"/>
</svg>
